<?xml version="1.0" standalone="no"?><!DOCTYPE svg PUBLIC "-//W3C//DTD SVG 1.1//EN" "http://www.w3.org/Graphics/SVG/1.1/DTD/svg11.dtd"><svg t="1585900303593" class="icon" viewBox="0 0 1024 1024" version="1.1" xmlns="http://www.w3.org/2000/svg" p-id="3989" xmlns:xlink="http://www.w3.org/1999/xlink" width="300" height="300"><defs><style type="text/css"></style></defs><path d="M845.17 598V76.54a10 10 0 0 0-10-10H104.11a10 10 0 0 0-10 10v869.92a10 10 0 0 0 10 10h625.26c-1.64 0-3.28 0-4.91-0.06q2.44 0.06 4.92 0.06c109.31 0 197.93-88.62 197.93-197.93A197.64 197.64 0 0 0 845.17 598z m-2.74-1.94l-0.31-0.22z m-698.32 310.4V116.54h651.07v455.27a197.73 197.73 0 0 0-65.8-11.21c-109.32 0-197.93 88.61-197.93 197.93a197.39 197.39 0 0 0 66.45 147.93H144.11zM833.6 590.24l-0.16-0.1z m-3.07-1.87l-0.16-0.09z m-9.22-5.16l-0.13-0.06zM808.46 577z m-88.89 379.22c1.07 0 2.16 0.08 3.24 0.12-1.08-0.04-2.17-0.07-3.24-0.12z m-86.12-24.53l0.38 0.21z m3.75 2l0.67 0.36z m3.9 2l0.86 0.42z m4 1.94l1 0.46z m4.1 1.88l1.06 0.46z m4.17 1.79l1.08 0.44z m4.24 1.71l1 0.39z m4.3 1.62l0.72 0.25z m12.42 4l0.5 0.15z m3.36 0.93l1.69 0.46z m4.28 1.1l2 0.5z m4.48 1l2.18 0.47z m4.58 1l2.3 0.44z m4.63 0.85l2.41 0.4z m4.7 0.75l2.49 0.35z m4.74 0.64l2.59 0.29z m4.78 0.52c0.9 0.09 1.81 0.17 2.71 0.24-0.89 0.01-1.8-0.07-2.7-0.16z m4.82 0.42l2.88 0.18zM834 863.13a147.93 147.93 0 1 1 43.33-104.6A147 147 0 0 1 834 863.13z" p-id="3990"></path><path d="M802.36 684.26l-95.49 95.5-50.47-50.47-35.36 35.35 85.83 85.83 130.85-130.85-35.36-35.36zM437.77 270.14h288.07v50H437.77zM268.07 308.14l-36.95-36.94-35.35 35.35 72.3 72.31 114.4-114.41-35.35-35.36-79.05 79.05zM437.77 455.12h138.34v50H437.77zM268.07 493.13l-36.95-36.94-35.35 35.35 72.3 72.3 114.4-114.4-35.35-35.36-79.05 79.05z" p-id="3991"></path></svg>