<?xml version="1.0" standalone="no"?><!DOCTYPE svg PUBLIC "-//W3C//DTD SVG 1.1//EN" "http://www.w3.org/Graphics/SVG/1.1/DTD/svg11.dtd"><svg t="1585896446605" class="icon" viewBox="0 0 1024 1024" version="1.1" xmlns="http://www.w3.org/2000/svg" p-id="14607" xmlns:xlink="http://www.w3.org/1999/xlink" width="200" height="200"><defs><style type="text/css"></style></defs><path d="M463.209412 401.167059c-6.625882-6.625882-17.468235-6.625882-24.094118 0-6.625882 6.625882-6.625882 17.468235 0 24.094118l127.698824 126.494118 177.091765-194.56c6.625882-7.228235 6.023529-18.070588-1.204706-24.094118-7.228235-6.625882-18.070588-6.023529-24.094118 1.204706l-152.997647 168.658824L463.209412 401.167059z" p-id="14608"></path><path d="M805.345882 837.872941c-9.637647 0-16.865882 7.830588-16.865882 16.865882L788.48 927.623529c0 9.637647-7.830588 16.865882-16.865882 16.865882L90.352941 944.489412c-9.637647 0-16.865882-7.830588-16.865882-16.865882L73.487059 246.362353c0-9.637647 7.830588-16.865882 16.865882-16.865882l72.282353 0c9.637647 0 16.865882-7.830588 16.865882-16.865882 0-9.637647-7.830588-16.865882-16.865882-16.865882L90.352941 195.764706c-28.310588 0-51.2 22.889412-51.2 51.2L39.152941 927.623529c0 28.310588 22.889412 51.2 51.2 51.2l681.261176 0c28.310588 0 51.2-22.889412 51.2-51.2l0-72.884706C822.814118 845.703529 814.983529 837.872941 805.345882 837.872941z" p-id="14609"></path><path d="M967.981176 280.094118c-9.637647 0-16.865882 7.830588-16.865882 16.865882l0 469.835294c0 9.637647-7.830588 16.865882-16.865882 16.865882L250.578824 783.661176c-9.637647 0-16.865882-7.830588-16.865882-16.865882L233.712941 84.329412c0-9.637647 7.830588-16.865882 16.865882-16.865882L716.8 67.463529c9.637647 0 16.865882-7.830588 16.865882-16.865882s-7.830588-16.865882-16.865882-16.865882L250.578824 33.731765c-28.310588 0-51.2 22.889412-51.2 51.2l0 683.068235c0 28.310588 22.889412 51.2 51.2 51.2L933.647059 819.2c28.310588 0 51.2-22.889412 51.2-51.2l0-469.835294C984.847059 287.924706 977.618824 280.094118 967.981176 280.094118z" p-id="14610"></path><path d="M967.981176 33.129412l-177.694118 0c-9.637647 0-16.865882 7.830588-16.865882 16.865882s7.830588 16.865882 16.865882 16.865882l160.828235 0 0 157.816471c0 9.637647 7.830588 16.865882 16.865882 16.865882 9.637647 0 16.865882-7.830588 16.865882-16.865882l0-174.682353C984.847059 40.357647 977.618824 33.129412 967.981176 33.129412z" p-id="14611"></path><path d="M362.014118 425.863529c0 127.096471 103.604706 230.701176 230.701176 230.701176 127.096471 0 230.701176-103.604706 230.701176-230.701176 0-127.096471-103.604706-230.701176-230.701176-230.701176C465.016471 195.162353 362.014118 298.767059 362.014118 425.863529zM788.48 425.863529c0 108.423529-87.943529 196.367059-196.367059 196.367059-108.423529 0-196.367059-87.943529-196.367059-196.367059s87.943529-196.367059 196.367059-196.367059C700.536471 229.496471 788.48 317.44 788.48 425.863529z" p-id="14612"></path></svg>