<?xml version="1.0" standalone="no"?><!DOCTYPE svg PUBLIC "-//W3C//DTD SVG 1.1//EN" "http://www.w3.org/Graphics/SVG/1.1/DTD/svg11.dtd"><svg t="1585900225447" class="icon" viewBox="0 0 1024 1024" version="1.1" xmlns="http://www.w3.org/2000/svg" p-id="2640" xmlns:xlink="http://www.w3.org/1999/xlink" width="300" height="300"><defs><style type="text/css"></style></defs><path d="M426.666667 853.333333h-170.666667c-23.466667 0-42.666667-19.2-42.666667-42.666666V213.333333c0-23.466667 19.2-42.666667 42.666667-42.666666h490.666667c23.466667 0 42.666667 19.2 42.666666 42.666666v320c0 12.8 8.533333 21.333333 21.333334 21.333334s21.333333-8.533333 21.333333-21.333334V213.333333c0-46.933333-38.4-85.333333-85.333333-85.333333H256c-46.933333 0-85.333333 38.4-85.333333 85.333333v597.333334c0 46.933333 38.4 85.333333 85.333333 85.333333h170.666667c12.8 0 21.333333-8.533333 21.333333-21.333333s-8.533333-21.333333-21.333333-21.333334z" p-id="2641"></path><path d="M704 341.333333c0-12.8-8.533333-21.333333-21.333333-21.333333H320c-12.8 0-21.333333 8.533333-21.333333 21.333333s8.533333 21.333333 21.333333 21.333334h362.666667c12.8 0 21.333333-8.533333 21.333333-21.333334zM490.666667 469.333333h-170.666667c-12.8 0-21.333333 8.533333-21.333333 21.333334s8.533333 21.333333 21.333333 21.333333h170.666667c12.8 0 21.333333-8.533333 21.333333-21.333333s-8.533333-21.333333-21.333333-21.333334zM629.333333 616.533333c8.533333-8.533333 8.533333-21.333333 0-29.866666-8.533333-8.533333-21.333333-8.533333-29.866666 0l-59.733334 59.733333c-2.133333 2.133333-4.266667 4.266667-4.266666 6.4-2.133333 4.266667-2.133333 10.666667 0 17.066667 2.133333 2.133333 2.133333 4.266667 4.266666 6.4l59.733334 59.733333c8.533333 8.533333 21.333333 8.533333 29.866666 0 8.533333-8.533333 8.533333-21.333333 0-29.866667L605.866667 682.666667H853.333333c12.8 0 21.333333-8.533333 21.333334-21.333334s-8.533333-21.333333-21.333334-21.333333H605.866667l23.466666-23.466667zM872.533333 823.466667c-2.133333-2.133333-2.133333-4.266667-4.266666-6.4l-59.733334-59.733334c-8.533333-8.533333-21.333333-8.533333-29.866666 0-8.533333 8.533333-8.533333 21.333333 0 29.866667l23.466666 23.466667H554.666667c-12.8 0-21.333333 8.533333-21.333334 21.333333s8.533333 21.333333 21.333334 21.333333h247.466666l-23.466666 23.466667c-8.533333 8.533333-8.533333 21.333333 0 29.866667 8.533333 8.533333 21.333333 8.533333 29.866666 0l59.733334-59.733334c2.133333-2.133333 4.266667-4.266667 4.266666-6.4 2.133333-6.4 2.133333-10.666667 0-17.066666z" p-id="2642"></path></svg>