<?xml version="1.0" standalone="no"?><!DOCTYPE svg PUBLIC "-//W3C//DTD SVG 1.1//EN" "http://www.w3.org/Graphics/SVG/1.1/DTD/svg11.dtd"><svg t="1585896699783" class="icon" viewBox="0 0 1024 1024" version="1.1" xmlns="http://www.w3.org/2000/svg" p-id="17659" xmlns:xlink="http://www.w3.org/1999/xlink" width="200" height="200"><defs><style type="text/css"></style></defs><path d="M767.3 661.9c3.2 6.8 10.1 11.6 18.2 11.6 10.7 0 19.5-8.4 20.1-19l6.2-0.1c-44.9-66.6-110.2-118.2-186.9-146 67.3-42.8 111.9-118.1 111.9-203.7 0-133.3-108-241.3-241.3-241.3s-241.3 108-241.3 241.3c0 85.5 44.4 160.5 111.4 203.4C233 555.7 134.5 674.4 115.9 818.2c-0.6 2.6-0.9 5.3-1 8.1 0 0.4-0.1 0.7-0.1 1.1h0.1c0.2 17.7 12.1 32.7 28.4 37.4 3 1.8 6.5 2.8 10.2 2.8h440.7v-0.8c0.8 0.1 1.7 0.2 2.6 0.2 11.1 0 20.1-9 20.1-20.1s-9-20.1-20.1-20.1c-1.7 0-3.3 0.2-4.9 0.6H157.3s3.5-21.2 7.1-38.6h-0.1c0.2-0.7 0.4-1.5 0.5-2.2 2.1-10 4.1-18.3 5.4-19.8C204.9 652.6 298.1 563.9 415 535.5v-1c0.5 0 1 0.1 1.6 0.1 12 0 21.7-9.7 21.7-21.7s-9.7-21.7-21.7-21.7c-0.5 0-1 0-1.6 0.1V489c-71-31-120.7-101.9-120.7-184.3 0-111.1 90-201.1 201.1-201.1s201.1 90 201.1 201.1c0 82.5-49.6 153.3-120.7 184.3v1.4c-11.7 0.6-21 10.2-21 22.1 0 11.9 9.3 21.5 21 22.1v0.9c77.7 18.9 145 64.4 191.5 126.4z m185 253.4l-67.9-67.8 67.6-67.6c7.5-7.5 7.5-19.6 0-27.1s-19.6-7.5-27.1 0l-67.6 67.6-67.6-67.6c-7.5-7.5-19.6-7.5-27.1 0s-7.5 19.6 0 27.1l67.6 67.6-67.8 67.8c-7.5 7.5-7.5 19.6 0 27.1s19.6 7.5 27.1 0l67.8-67.8 67.8 67.8c7.5 7.5 19.6 7.5 27.1 0 7.6-7.5 7.6-19.7 0.1-27.1z" p-id="17660"></path></svg>