<?xml version="1.0" standalone="no"?><!DOCTYPE svg PUBLIC "-//W3C//DTD SVG 1.1//EN" "http://www.w3.org/Graphics/SVG/1.1/DTD/svg11.dtd"><svg t="1585896629589" class="icon" viewBox="0 0 1024 1024" version="1.1" xmlns="http://www.w3.org/2000/svg" p-id="16817" xmlns:xlink="http://www.w3.org/1999/xlink" width="200" height="200"><defs><style type="text/css"></style></defs><path d="M152.7 177.9l750.7 629.9-32.1 38.3-750.7-629.9 32.1-38.3z m726-114h-490c-44 0-80 36-80 80v47.8h50v-47.8c0-7.9 3.1-15.4 8.9-21.1 5.7-5.7 13.2-8.9 21.1-8.9h490c7.9 0 15.4 3.1 21.1 8.9 5.7 5.7 8.9 13.2 8.9 21.1v420c0 7.9-3.1 15.4-8.9 21.1-5.7 5.7-13.2 8.9-21.1 8.9h-81.9v50h81.9c44 0 80-36 80-80v-420c0-44-36-80-80-80z m-212.2 816c0 7.9-3.1 15.4-8.9 21.1-5.7 5.7-13.2 8.9-21.1 8.9h-490c-7.9 0-15.4-3.1-21.1-8.9-5.7-5.7-8.9-13.2-8.9-21.1v-420c0-7.9 3.1-15.4 8.9-21.1 5.7-5.7 13.2-8.9 21.1-8.9H219v-50h-72.4c-44 0-80 36-80 80v420c0 44 36 80 80 80h490c44 0 80-36 80-80v-93.2h-50v93.2z" fill="" p-id="16818"></path></svg>