<?xml version="1.0" standalone="no"?><!DOCTYPE svg PUBLIC "-//W3C//DTD SVG 1.1//EN" "http://www.w3.org/Graphics/SVG/1.1/DTD/svg11.dtd"><svg t="1585895327417" class="icon" viewBox="0 0 1024 1024" version="1.1" xmlns="http://www.w3.org/2000/svg" p-id="2105" xmlns:xlink="http://www.w3.org/1999/xlink" width="200" height="200"><defs><style type="text/css"></style></defs><path d="M779.5 656.8V840H133.8V429.8l301.9 85.1c6.2 1.7 12.6 2.6 18.9 2.6 6.3 0 12.6-0.9 18.7-2.6l229.1-63.8 50.4-88.7-24.6 6.9V148c0-19.9-15.9-36-35.4-36H220.5c-19.6 0-35.4 16.1-35.4 36v221.5L94.5 344C77.2 344 63 358.6 63 376.5v503.1c0 17.9 14.2 32.5 31.5 32.5h724.4c17.3 0 31.5-14.6 31.5-32.5V532.1l-70.9 124.7zM255.9 184h401.6v205l-202.7 56.5-198.8-56V184z" p-id="2106"></path><path d="M590.5 322v-40c0-6.6-5.3-12-11.8-12H334.6c-6.5 0-11.8 5.4-11.8 12v40c0 6.6 5.3 12 11.8 12h244.1c6.5 0 11.8-5.4 11.8-12zM456.2 673.5c-0.6 0-1.2-0.3-1.5-0.9-7.5-13.1-10.6-19-22.8-40L407.5 590c-0.3-0.5-0.9-0.9-1.5-0.9h-64.2c-1.5 0-2.3 1.7-1.3 2.9l71.5 90c0.9 1.1 0.1 2.9-1.3 2.9h-45.8c-1 0-1.7 0.8-1.7 1.8v18.7c0 1 0.8 1.8 1.7 1.8h59.8c1 0 1.7 0.8 1.7 1.8v12c0 1-0.8 1.8-1.7 1.8h-59.8c-1 0-1.7 0.8-1.7 1.8v18.7c0 1 0.8 1.8 1.7 1.8h59.8c1 0 1.7 0.8 1.7 1.8v34.3c0 1 0.8 1.8 1.7 1.8H483c1 0 1.7-0.8 1.7-1.8v-34.3c0-1 0.8-1.8 1.7-1.8h59.1c1 0 1.7-0.8 1.7-1.8v-18.7c0-1-0.8-1.8-1.7-1.8h-59.1c-1 0-1.7-0.8-1.7-1.8v-12c0-1 0.8-1.8 1.7-1.8h59.1c1 0 1.7-0.8 1.7-1.8v-18.7c0-1-0.8-1.8-1.7-1.8h-45.8c-1.5 0-2.3-1.7-1.3-2.9l71.5-90c0.9-1.1 0.1-2.9-1.3-2.9h-62.9c-0.6 0-1.2 0.3-1.5 0.9l-23.7 42.6c-11.2 20-14.9 26.9-22.8 40-0.3 0.6-0.9 0.9-1.5 0.9zM948.8 260l-69.6-39.9c-9.6-5.5-21.9-2-27.3 7.7L615.8 653c-5.4 9.8-2 22.2 7.6 27.7l69.6 39.9c9.6 5.5 21.9 2 27.3-7.7l236.1-425.2c5.4-9.7 2-22.2-7.6-27.7z" p-id="2107"></path><path d="M581.3 724.8l16.8 61.4c2.3 8.5 11 13.4 19.3 11.1l60.4-17.1c2.2-0.6 4.2-1.8 5.9-3.3l-102.7-59c-0.4 2.3-0.4 4.6 0.3 6.9z" p-id="2108"></path></svg>