<?xml version="1.0" standalone="no"?><!DOCTYPE svg PUBLIC "-//W3C//DTD SVG 1.1//EN" "http://www.w3.org/Graphics/SVG/1.1/DTD/svg11.dtd"><svg t="1585895108511" class="icon" viewBox="0 0 1024 1024" version="1.1" xmlns="http://www.w3.org/2000/svg" p-id="1982" xmlns:xlink="http://www.w3.org/1999/xlink" width="200" height="200"><defs><style type="text/css"></style></defs><path d="M512 264c-17.7 0-31.9 13.9-31.9 31L480.1 512c0 7.1 2.5 13.9 7 19.4l127.8 155c6.3 7.7 15.6 11.6 25 11.6 7 0 14-2.2 19.9-6.8 13.8-10.7 16-30.2 5-43.6L544 501.1 544 295C544 277.9 529.7 264 512 264zM889.1 444.4c-2.7-14.1-6.2-28.1-10.5-41.6-5.2-16.4-23-25.7-39.9-20.6-16.9 5-26.4 22.3-21.2 38.7 3.6 11.3 6.5 23 8.7 34.7 5.7 30.1 6.8 61 3.2 91.9-15.4 134.7-126 248.2-263.1 270.1-104.4 16.6-206.5-14.9-280.3-86.4-73.7-71.5-106.2-170.6-89.1-271.9 22.4-132.7 134.5-237.4 272.6-254.5 110.5-13.9 218.2 27.3 288.5 109.7 11.3 13.2 31.4 15 45 4.1 13.6-10.9 15.5-30.5 4.2-43.6-84.4-98.8-213.6-148-345.9-131.6-165.9 20.6-300.6 146.5-327.5 306-20.5 121.2 18.5 239.9 107 325.7 73 70.8 169.1 109 270.7 109 21.5 0 43.3-1.7 65.1-5.2 167.4-26.6 297.5-160 316.2-324.4C897.2 517.4 895.9 480.4 889.1 444.4z" p-id="1983"></path></svg>