<?xml version="1.0" standalone="no"?><!DOCTYPE svg PUBLIC "-//W3C//DTD SVG 1.1//EN" "http://www.w3.org/Graphics/SVG/1.1/DTD/svg11.dtd"><svg t="1585895633201" class="icon" viewBox="0 0 1024 1024" version="1.1" xmlns="http://www.w3.org/2000/svg" p-id="3286" xmlns:xlink="http://www.w3.org/1999/xlink" width="200" height="200"><defs><style type="text/css"></style></defs><path d="M812.720388 1019.904148c-99.560323 0-180.558721-80.998398-180.558721-180.558721S713.160066 658.788707 812.720388 658.788707c99.559322 0 180.55772 80.997398 180.557721 180.557721s-80.998398 180.55772-180.557721 180.55772z m0-321.08757c-77.488955 0-140.53085 63.041895-140.53085 140.52985 0 77.488955 63.041895 140.53085 140.53085 140.53085S953.250238 916.835382 953.250238 839.346428 890.209343 698.816578 812.720388 698.816578z" p-id="3287"></path><path d="M812.720388 725.473139l26.048137 80.166819h84.291692l-68.194483 49.544498 26.047136 80.16782-68.192482-49.546499-68.193482 49.546499 26.047136-80.16782-68.192481-49.544498h84.29069z" p-id="3288"></path><path d="M503.836316 976.790128c-18.906164 0-30.584296-0.062043-31.543964-0.067046H72.732143c-16.563533 0-30.038916-13.474382-30.038916-30.036915V37.557151c0-16.562532 13.475383-30.036914 30.038916-30.036915h760.473509c16.562532 0 30.037915 13.474382 30.037915 30.036915v579.069199c0 11.053697-8.960239 20.013935-20.013935 20.013936s-20.013935-8.960239-20.013936-20.013936V47.548107H82.721098v889.147104h389.746376c0.655456 0.003002 66.508309 0.37326 145.879574-0.656457l0.264184-0.001001c10.933613 0 19.865832 8.79012 20.006931 19.754755 0.1441 11.052696-8.700058 20.129016-19.752754 20.271114-46.300238 0.599417-88.032296 0.726506-115.029093 0.726506z" p-id="3289"></path><path d="M699.506559 265.323742h-493.073322c-11.053697 0-20.013935-8.960239-20.013935-20.013935s8.960239-20.013935 20.013935-20.013936h493.073322c11.053697 0 20.013935 8.960239 20.013935 20.013936s-8.96124 20.013935-20.013935 20.013935zM598.199019 726.418797H206.432237c-11.053697 0-20.013935-8.960239-20.013936-20.013935s8.960239-20.013935 20.013936-20.013936h391.766782c11.053697 0 20.013935 8.960239 20.013936 20.013936s-8.960239 20.013935-20.013936 20.013935zM699.506559 495.87127h-493.073322c-11.053697 0-20.013935-8.960239-20.013935-20.013936s8.960239-20.013935 20.013935-20.013935h493.073322c11.053697 0 20.013935 8.960239 20.013935 20.013935s-8.96124 20.013935-20.013935 20.013936z" p-id="3290"></path></svg>