<?xml version="1.0" standalone="no"?><!DOCTYPE svg PUBLIC "-//W3C//DTD SVG 1.1//EN" "http://www.w3.org/Graphics/SVG/1.1/DTD/svg11.dtd"><svg t="1585897750033" class="icon" viewBox="0 0 1024 1024" version="1.1" xmlns="http://www.w3.org/2000/svg" p-id="2223" xmlns:xlink="http://www.w3.org/1999/xlink" width="200" height="200"><defs><style type="text/css"></style></defs><path d="M319.255273 909.730909a34.909091 34.909091 0 0 1-34.909091 34.909091H174.266182a127.767273 127.767273 0 0 1-127.627637-127.627636V175.662545a127.720727 127.720727 0 0 1 127.627637-127.58109h502.225454a127.720727 127.720727 0 0 1 127.627637 127.58109v81.128728a34.909091 34.909091 0 0 1-69.818182 0V175.662545c0-31.883636-25.925818-57.762909-57.809455-57.762909H174.266182c-31.883636 0-57.809455 25.925818-57.809455 57.762909v641.303273c0 31.883636 25.925818 57.809455 57.809455 57.809455H284.392727a35.002182 35.002182 0 0 1 34.862546 34.955636zM239.941818 243.2a34.909091 34.909091 0 0 0 0 69.818182h378.600727a34.909091 34.909091 0 0 0 0-69.818182H239.941818z m65.675637 193.163636H239.941818a34.909091 34.909091 0 0 0 0 69.818182h65.675637a34.909091 34.909091 0 0 0 0-69.818182z m583.586909 451.211637c-56.925091 56.971636-132.654545 88.250182-213.178182 88.250182s-156.206545-31.325091-213.178182-88.250182a301.940364 301.940364 0 0 1 0-426.356364c56.971636-56.971636 132.608-88.250182 213.178182-88.250182s156.253091 31.325091 213.178182 88.250182c117.527273 117.620364 117.527273 308.875636 0 426.356364z m-49.384728-376.971637c-43.706182-43.706182-101.888-67.816727-163.84-67.816727s-120.087273 24.110545-163.793454 67.816727a232.029091 232.029091 0 0 0 0 327.633455c43.706182 43.706182 101.888 67.816727 163.793454 67.816727s120.087273-24.110545 163.84-67.816727a231.889455 231.889455 0 0 0 0-327.633455z m-44.916363 44.916364a34.909091 34.909091 0 0 0-49.384728 0l-69.538909 69.538909-69.538909-69.538909a34.909091 34.909091 0 1 0-49.384727 49.384727l69.538909 69.585455-69.538909 69.538909a34.909091 34.909091 0 0 0 49.338182 49.384727l69.538909-69.538909 69.538909 69.538909a34.862545 34.862545 0 1 0 49.338182-49.384727l-69.538909-69.538909 69.538909-69.585455a34.816 34.816 0 0 0 0.093091-49.384727z" p-id="2224"></path></svg>