<?xml version="1.0" standalone="no"?><!DOCTYPE svg PUBLIC "-//W3C//DTD SVG 1.1//EN" "http://www.w3.org/Graphics/SVG/1.1/DTD/svg11.dtd"><svg t="1585896818371" class="icon" viewBox="0 0 1024 1024" version="1.1" xmlns="http://www.w3.org/2000/svg" p-id="20401" xmlns:xlink="http://www.w3.org/1999/xlink" width="200" height="200"><defs><style type="text/css"></style></defs><path d="M768.9 634.5l-28.3-28.3-34.4 34.4-34.4-34.4-28.3 28.3 26 25.9h-37.9v40h54.6v24.4h-54.6v40h54.6v36.6h40v-36.6h54.6v-40h-54.6v-24.4h54.6v-40H743z" p-id="20402"></path><path d="M181.5 247h82v64.3h429.3V247h82.8v231.2h46V201H692.8v-64.2H263.6V201h-128v621.8h348.3v-46H181.5V247z m128.1-64.1h337.3v82.5H309.6v-82.5z" p-id="20403"></path><path d="M286.6 393.3h384.1v46H286.6zM286.6 525.6h229.2v46H286.6zM286.6 649H451v46H286.6zM706.2 522.7c-100.5 0-182.2 81.7-182.2 182.2s81.7 182.2 182.2 182.2c100.5 0 182.2-81.7 182.2-182.2s-81.7-182.2-182.2-182.2z m0 318.4C631.1 841.1 570 780 570 704.9s61.1-136.2 136.2-136.2 136.2 61.1 136.2 136.2-61.1 136.2-136.2 136.2z" p-id="20404"></path></svg>