<?xml version="1.0" standalone="no"?><!DOCTYPE svg PUBLIC "-//W3C//DTD SVG 1.1//EN" "http://www.w3.org/Graphics/SVG/1.1/DTD/svg11.dtd"><svg t="1585896098540" class="icon" viewBox="0 0 1024 1024" version="1.1" xmlns="http://www.w3.org/2000/svg" p-id="10020" xmlns:xlink="http://www.w3.org/1999/xlink" width="200" height="200"><defs><style type="text/css"></style></defs><path d="M892.662 1024H131.338c-43.391 0-78.691-35.302-78.691-78.692V482.739c0-43.391 35.301-78.691 78.691-78.691h761.324c43.391 0 78.691 35.301 78.691 78.691v109.556c0 16.568-13.432 30-30 30H772.117c-50.58 0-91.73 41.149-91.73 91.729s41.15 91.729 91.73 91.729h169.236c16.568 0 30 13.432 30 30v109.555c0.001 43.39-35.3 78.692-78.691 78.692zM131.338 464.047c-10.307 0-18.691 8.385-18.691 18.691v462.569c0 10.307 8.385 18.692 18.691 18.692h761.324c10.307 0 18.691-8.386 18.691-18.692v-79.555H772.117c-83.664 0-151.73-68.065-151.73-151.729 0-83.663 68.066-151.729 151.73-151.729h139.236v-79.556c0-10.307-8.385-18.691-18.691-18.691H131.338z" p-id="10021"></path><path d="M835.896 714.023c0 35.223-28.557 63.779-63.779 63.779-35.225 0-63.781-28.557-63.781-63.779 0-35.228 28.557-63.78 63.781-63.78 35.223 0 63.779 28.553 63.779 63.78zM388.366 141.458l123.879 100.438c2.838 2.294 6.75 3.604 10.748 3.604 4.014 0 7.939-1.311 10.744-3.604l123.896-100.438c4.344-3.521 5.643-8.823 3.289-13.425-2.355-4.607-7.908-7.609-14.053-7.609h-66.117v-64.61 5.221-48.538C580.753 5.595 573.851 0 565.337 0h-84.674c-8.51 0-15.408 5.59-15.416 12.486v48.548-5.221 64.609h-66.135c-6.16 0-11.697 3.002-14.051 7.609a10.317 10.317 0 0 0-1.143 4.707c0.001 3.214 1.524 6.363 4.448 8.72zM809.609 282.126l29.42 106.675h62.238l-33.84-122.705c-6.551-23.757-27.432-41.317-51.957-43.698a59.63 59.63 0 0 0-21.707 1.885L197.218 388.801h225.636l386.755-106.675zM345.409 25.316C343.618 10.221 335.187 1.789 320.093 0c-8.89 0.895-15.551 4.455-19.986 10.658l-49.298 70.618-49.299-70.618C197.054 4.455 190.392 0.895 181.524 0c-15.115 1.789-23.547 10.221-25.315 25.316 0 5.329 1.769 10.221 5.33 14.656l42.636 59.955h-27.98c-9.785 0.896-15.113 5.79-15.988 14.658 0.875 8.889 6.203 13.782 15.988 14.656h49.299v22.651h-49.299c-9.785 0.896-15.113 5.787-15.988 14.657 0.875 8.888 6.203 13.782 15.988 14.656h49.299v41.306c0.874 15.112 9.326 22.649 25.315 22.649 15.987 0 24.421-7.537 25.316-22.649v-41.306h49.298c9.764-0.874 15.094-5.768 15.988-14.656-0.895-8.87-6.225-13.761-15.988-14.657h-49.298v-22.651h49.298c9.764-0.874 15.094-5.767 15.988-14.656-0.895-8.869-6.225-13.762-15.988-14.658h-27.98l42.636-59.955c3.539-4.435 5.33-9.327 5.33-14.656z" p-id="10022"></path></svg>